<?xml version="1.0" encoding="utf-8"?>
<!-- Generator: Adobe Illustrator 24.1.1, SVG Export Plug-In . SVG Version: 6.00 Build 0)  -->
<svg version="1.1" id="Layer_1" xmlns="http://www.w3.org/2000/svg" xmlns:xlink="http://www.w3.org/1999/xlink" x="0px" y="0px"
	 viewBox="0 0 841.89 228.58" style="enable-background:new 0 0 841.89 228.58;" xml:space="preserve">
<style type="text/css">
	.st0{fill:#FBB040;}
	.st1{fill:#D1D3D4;}
</style>
<g>
	<path class="st0" d="M34.47,110.29c-1.27,2.08-3.35,3.64-6.24,4.68c2.89,1.04,4.96,2.6,6.24,4.68c1.27,2.08,1.91,5.26,1.91,9.53
		v42.79c0,9.24,4.39,13.86,13.17,13.86h4.68v10.22h-6.41c-15.82,0-23.73-7.68-23.73-23.04v-44c0-5.89-2.6-8.83-7.8-8.83h-5.89
		v-10.39h5.89c5.2,0,7.8-2.94,7.8-8.83v-44c0-15.36,7.91-23.04,23.73-23.04h6.41v10.22h-4.68c-8.78,0-13.17,4.62-13.17,13.86v42.79
		C36.38,105.03,35.74,108.21,34.47,110.29z"/>
	<path class="st1" d="M99.69,75.29c5.72-3.12,12.79-4.68,21.22-4.68v11.95l-2.94-0.17c-9.59,0-17.09,2.94-22.52,8.83
		c-5.43,5.89-8.14,14.15-8.14,24.77v46.43h-12.3V71.31h11.78v17.84C89.67,83.03,93.98,78.41,99.69,75.29z"/>
	<path class="st1" d="M221.56,120.68h-76.22c0.69,9.47,4.33,17.12,10.91,22.95c6.58,5.83,14.9,8.75,24.95,8.75
		c5.66,0,10.85-1.01,15.59-3.03c4.73-2.02,8.83-4.99,12.3-8.92l6.93,7.97c-4.04,4.85-9.09,8.55-15.16,11.09
		c-6.06,2.54-12.73,3.81-20.01,3.81c-9.35,0-17.64-1.99-24.86-5.98c-7.22-3.98-12.85-9.5-16.89-16.54
		c-4.04-7.04-6.06-15.01-6.06-23.91c0-8.89,1.93-16.86,5.8-23.91c3.87-7.04,9.18-12.53,15.94-16.46c6.76-3.92,14.35-5.89,22.78-5.89
		c8.43,0,15.99,1.97,22.69,5.89c6.7,3.93,11.95,9.38,15.76,16.37c3.81,6.99,5.72,14.98,5.72,23.99L221.56,120.68z M155.47,89.58
		c-5.95,5.6-9.33,12.91-10.13,21.91h64.61c-0.81-9.01-4.19-16.31-10.13-21.91c-5.95-5.6-13.37-8.4-22.26-8.4
		C168.78,81.18,161.42,83.98,155.47,89.58z"/>
	<path class="st1" d="M269.63,155.5c-9.64-5.31-17.21-12.67-22.69-22.09c-5.49-9.41-8.23-19.95-8.23-31.61
		c0-11.66,2.74-22.2,8.23-31.61c5.48-9.41,13.08-16.77,22.78-22.09c9.7-5.31,20.55-7.97,32.57-7.97c9.01,0,17.32,1.5,24.94,4.5
		c7.62,3,14.09,7.39,19.4,13.17l-8.14,8.14c-9.47-9.58-21.42-14.38-35.86-14.38c-9.59,0-18.31,2.2-26.16,6.58
		c-7.85,4.39-14,10.39-18.45,18.02c-4.45,7.62-6.67,16.17-6.67,25.64c0,9.47,2.22,18.02,6.67,25.64
		c4.44,7.62,10.59,13.63,18.45,18.02c7.85,4.39,16.57,6.58,26.16,6.58c14.55,0,26.5-4.85,35.86-14.55l8.14,8.14
		c-5.31,5.78-11.81,10.19-19.49,13.25c-7.68,3.06-16.02,4.59-25.03,4.59C290.1,163.47,279.27,160.81,269.63,155.5z"/>
	<path class="st1" d="M380.93,157.32c-7.05-3.98-12.59-9.5-16.63-16.54c-4.04-7.04-6.06-15.01-6.06-23.91
		c0-8.89,2.02-16.86,6.06-23.91c4.04-7.04,9.58-12.53,16.63-16.46c7.04-3.92,14.95-5.89,23.73-5.89c8.78,0,16.69,1.97,23.73,5.89
		c7.04,3.93,12.56,9.41,16.54,16.46c3.98,7.05,5.98,15.01,5.98,23.91c0,8.89-1.99,16.86-5.98,23.91
		c-3.98,7.05-9.5,12.56-16.54,16.54c-7.05,3.98-14.96,5.98-23.73,5.98C395.89,163.29,387.97,161.3,380.93,157.32z M422.07,147.96
		c5.14-2.94,9.15-7.13,12.04-12.56c2.89-5.43,4.33-11.61,4.33-18.54s-1.45-13.11-4.33-18.54c-2.89-5.43-6.9-9.61-12.04-12.56
		c-5.14-2.94-10.94-4.42-17.41-4.42c-6.47,0-12.27,1.47-17.41,4.42c-5.14,2.94-9.18,7.13-12.13,12.56
		c-2.94,5.43-4.42,11.61-4.42,18.54s1.47,13.11,4.42,18.54c2.94,5.43,6.99,9.61,12.13,12.56c5.14,2.94,10.94,4.42,17.41,4.42
		C411.13,152.38,416.93,150.91,422.07,147.96z"/>
	<path class="st1" d="M494.14,47.75c-2.71,2.89-4.07,7.16-4.07,12.82v10.74h28.06V81.7h-27.72v80.73h-12.3V81.7h-16.28V71.31h16.28
		V60.05c0-8.31,2.4-14.9,7.19-19.75c4.79-4.85,11.58-7.28,20.35-7.28c3.46,0,6.81,0.49,10.05,1.47c3.23,0.98,5.95,2.4,8.14,4.24
		l-4.16,9.18c-3.58-3-8.08-4.5-13.51-4.5C500.86,43.42,496.85,44.86,494.14,47.75z"/>
	<path class="st1" d="M552.86,47.75c-2.71,2.89-4.07,7.16-4.07,12.82v10.74h28.06V81.7h-27.72v80.73h-12.3V81.7h-16.28V71.31h16.28
		V60.05c0-8.31,2.4-14.9,7.19-19.75c4.79-4.85,11.58-7.28,20.35-7.28c3.46,0,6.81,0.49,10.05,1.47c3.23,0.98,5.95,2.4,8.14,4.24
		l-4.16,9.18c-3.58-3-8.08-4.5-13.51-4.5C559.59,43.42,555.57,44.86,552.86,47.75z"/>
	<path class="st1" d="M671.26,120.68h-76.22c0.69,9.47,4.33,17.12,10.91,22.95c6.58,5.83,14.9,8.75,24.95,8.75
		c5.66,0,10.85-1.01,15.59-3.03c4.73-2.02,8.83-4.99,12.3-8.92l6.93,7.97c-4.04,4.85-9.09,8.55-15.16,11.09
		c-6.06,2.54-12.73,3.81-20.01,3.81c-9.35,0-17.64-1.99-24.86-5.98c-7.22-3.98-12.85-9.5-16.89-16.54
		c-4.04-7.04-6.06-15.01-6.06-23.91c0-8.89,1.93-16.86,5.8-23.91c3.87-7.04,9.18-12.53,15.94-16.46c6.76-3.92,14.35-5.89,22.78-5.89
		c8.43,0,15.99,1.97,22.69,5.89c6.7,3.93,11.95,9.38,15.76,16.37c3.81,6.99,5.72,14.98,5.72,23.99L671.26,120.68z M605.17,89.58
		c-5.95,5.6-9.33,12.91-10.13,21.91h64.62c-0.81-9.01-4.19-16.31-10.13-21.91c-5.95-5.6-13.37-8.4-22.26-8.4
		C618.48,81.18,611.12,83.98,605.17,89.58z"/>
	<path class="st1" d="M775.89,120.68h-76.22c0.69,9.47,4.33,17.12,10.91,22.95c6.58,5.83,14.9,8.75,24.95,8.75
		c5.66,0,10.85-1.01,15.59-3.03c4.73-2.02,8.83-4.99,12.3-8.92l6.93,7.97c-4.04,4.85-9.09,8.55-15.16,11.09
		c-6.06,2.54-12.73,3.81-20.01,3.81c-9.35,0-17.64-1.99-24.86-5.98c-7.22-3.98-12.85-9.5-16.89-16.54
		c-4.04-7.04-6.06-15.01-6.06-23.91c0-8.89,1.93-16.86,5.8-23.91c3.87-7.04,9.18-12.53,15.94-16.46c6.76-3.92,14.35-5.89,22.78-5.89
		c8.43,0,15.99,1.97,22.69,5.89c6.7,3.93,11.95,9.38,15.76,16.37c3.81,6.99,5.72,14.98,5.72,23.99L775.89,120.68z M709.8,89.58
		c-5.95,5.6-9.33,12.91-10.13,21.91h64.62c-0.81-9.01-4.19-16.31-10.13-21.91c-5.95-5.6-13.37-8.4-22.26-8.4
		C723.11,81.18,715.75,83.98,709.8,89.58z"/>
	<path class="st0" d="M831.5,109.77v10.39h-5.89c-5.2,0-7.79,2.94-7.79,8.83v44c0,15.36-7.86,23.04-23.56,23.04h-6.58v-10.22h4.68
		c8.77,0,13.17-4.62,13.17-13.86v-42.79c0-4.27,0.63-7.45,1.91-9.53c1.27-2.08,3.35-3.64,6.24-4.68c-2.89-1.04-4.97-2.6-6.24-4.68
		c-1.27-2.08-1.91-5.25-1.91-9.53V57.97c0-9.24-4.39-13.86-13.17-13.86h-4.68V33.89h6.58c15.7,0,23.56,7.68,23.56,23.04v44
		c0,5.89,2.6,8.83,7.79,8.83H831.5z"/>
</g>
</svg>
